<mxfile host="app.diagrams.net" modified="2024-03-16T14:35:32.616Z" agent="Mozilla/5.0 (Windows NT 10.0; Win64; x64) AppleWebKit/537.36 (KHTML, like Gecko) Chrome/122.0.0.0 Safari/537.36 Edg/122.0.0.0" etag="YdqQ1-Kq69ktxqYQ7IJI" version="24.0.7" type="github">
  <diagram id="R2lEEEUBdFMjLlhIrx00" name="Page-1">
    <mxGraphModel dx="2605" dy="1468" grid="1" gridSize="10" guides="1" tooltips="1" connect="1" arrows="1" fold="1" page="1" pageScale="1" pageWidth="1700" pageHeight="900" math="0" shadow="0" extFonts="Permanent Marker^https://fonts.googleapis.com/css?family=Permanent+Marker">
      <root>
        <mxCell id="0" />
        <mxCell id="1" parent="0" />
        <mxCell id="qaRUCrimMWkjm7p7KqGJ-1" style="rounded=0;orthogonalLoop=1;jettySize=auto;html=1;exitX=0;exitY=0;exitDx=0;exitDy=0;entryX=1;entryY=1;entryDx=0;entryDy=0;strokeWidth=5;startArrow=none;startFill=0;endArrow=none;endFill=0;" edge="1" parent="1" source="qaRUCrimMWkjm7p7KqGJ-4" target="qaRUCrimMWkjm7p7KqGJ-5">
          <mxGeometry relative="1" as="geometry" />
        </mxCell>
        <mxCell id="qaRUCrimMWkjm7p7KqGJ-2" style="edgeStyle=none;rounded=0;orthogonalLoop=1;jettySize=auto;html=1;exitX=0.5;exitY=0;exitDx=0;exitDy=0;strokeWidth=5;endArrow=none;endFill=0;" edge="1" parent="1" source="qaRUCrimMWkjm7p7KqGJ-4" target="qaRUCrimMWkjm7p7KqGJ-6">
          <mxGeometry relative="1" as="geometry" />
        </mxCell>
        <mxCell id="qaRUCrimMWkjm7p7KqGJ-3" style="edgeStyle=none;rounded=0;orthogonalLoop=1;jettySize=auto;html=1;exitX=0.75;exitY=0;exitDx=0;exitDy=0;entryX=0.5;entryY=1;entryDx=0;entryDy=0;strokeWidth=5;endArrow=none;endFill=0;" edge="1" parent="1" source="qaRUCrimMWkjm7p7KqGJ-4" target="qaRUCrimMWkjm7p7KqGJ-7">
          <mxGeometry relative="1" as="geometry" />
        </mxCell>
        <mxCell id="qaRUCrimMWkjm7p7KqGJ-9" style="rounded=0;orthogonalLoop=1;jettySize=auto;html=1;exitX=1;exitY=0;exitDx=0;exitDy=0;entryX=0;entryY=1;entryDx=0;entryDy=0;strokeWidth=5;endArrow=none;endFill=0;" edge="1" parent="1" source="qaRUCrimMWkjm7p7KqGJ-4" target="qaRUCrimMWkjm7p7KqGJ-8">
          <mxGeometry relative="1" as="geometry" />
        </mxCell>
        <mxCell id="qaRUCrimMWkjm7p7KqGJ-4" value="部门表" style="html=1;whiteSpace=wrap;fontSize=60;strokeWidth=2;" vertex="1" parent="1">
          <mxGeometry x="750" y="650" width="250" height="110" as="geometry" />
        </mxCell>
        <mxCell id="qaRUCrimMWkjm7p7KqGJ-5" value="部门ID" style="ellipse;whiteSpace=wrap;html=1;fontSize=55;strokeWidth=2;fontStyle=4" vertex="1" parent="1">
          <mxGeometry x="190" y="290" width="270" height="150" as="geometry" />
        </mxCell>
        <mxCell id="qaRUCrimMWkjm7p7KqGJ-6" value="&lt;span&gt;部门名字&lt;/span&gt;" style="ellipse;whiteSpace=wrap;html=1;fontSize=55;strokeWidth=2;fontStyle=0" vertex="1" parent="1">
          <mxGeometry x="480" y="130" width="270" height="150" as="geometry" />
        </mxCell>
        <mxCell id="qaRUCrimMWkjm7p7KqGJ-7" value="图片路径" style="ellipse;whiteSpace=wrap;html=1;fontSize=55;strokeWidth=2;" vertex="1" parent="1">
          <mxGeometry x="920" y="120" width="270" height="150" as="geometry" />
        </mxCell>
        <mxCell id="qaRUCrimMWkjm7p7KqGJ-8" value="个性签名" style="ellipse;whiteSpace=wrap;html=1;fontSize=55;strokeWidth=2;" vertex="1" parent="1">
          <mxGeometry x="1260" y="260" width="270" height="150" as="geometry" />
        </mxCell>
      </root>
    </mxGraphModel>
  </diagram>
</mxfile>
